<?xml version="1.0" standalone="no"?>
<!DOCTYPE svg PUBLIC "-//W3C//DTD SVG 20010904//EN"
 "http://www.w3.org/TR/2001/REC-SVG-20010904/DTD/svg10.dtd">
<svg version="1.0" xmlns="http://www.w3.org/2000/svg"
 width="994.000000pt" height="994.000000pt" viewBox="0 0 994.000000 994.000000"
 preserveAspectRatio="xMidYMid meet">
<metadata>
Created by potrace 1.11, written by Peter Selinger 2001-2013
</metadata>
<g transform="translate(0.000000,994.000000) scale(0.100000,-0.100000)"
fill="#000000" stroke="none">
<path d="M5263 9848 c-4 -7 -49 -94 -99 -193 -116 -230 -193 -353 -268 -432
-70 -72 -98 -80 -115 -32 -11 32 -8 176 5 218 l7 24 -31 -18 c-48 -29 -218
-178 -391 -344 -87 -83 -143 -121 -274 -185 -106 -52 -148 -67 -212 -76 -146
-21 -265 -51 -443 -111 -97 -32 -180 -59 -184 -59 -8 0 -17 34 -48 185 -37
180 -82 346 -107 391 -13 24 -40 57 -60 75 -36 31 -38 31 -112 26 -237 -17
-641 -244 -780 -437 -72 -100 -78 -157 -26 -244 43 -72 60 -93 200 -241 151
-162 205 -225 212 -252 4 -17 -7 -42 -35 -86 -87 -134 -168 -281 -280 -507
-136 -272 -220 -465 -307 -705 -97 -264 -181 -447 -299 -648 -28 -48 -55 -96
-61 -105 -29 -51 -168 -249 -229 -327 -109 -140 -180 -219 -329 -369 -265
-266 -453 -523 -592 -811 -154 -317 -375 -854 -375 -911 0 -25 26 -15 56 22
16 20 65 84 109 142 44 58 85 108 92 110 8 2 9 -8 1 -40 -8 -36 -89 -451 -104
-528 -2 -14 -11 -61 -20 -105 -9 -44 -18 -91 -20 -105 -3 -14 -14 -70 -25
-125 -11 -55 -22 -112 -24 -127 -8 -46 -15 -82 -19 -103 -24 -123 -76 -439
-73 -448 2 -6 18 25 36 68 103 250 199 364 311 370 27 1 50 -2 50 -7 0 -5 4
-7 9 -4 16 10 103 -57 148 -113 24 -31 69 -96 100 -146 32 -49 60 -92 63 -95
3 -3 20 -28 37 -56 74 -122 219 -279 408 -444 101 -88 137 -116 300 -239 343
-259 833 -563 1370 -849 162 -86 610 -305 740 -362 66 -29 138 -60 160 -70
606 -268 837 -322 1355 -315 140 2 264 5 275 8 11 3 43 8 70 11 97 13 121 17
175 27 149 29 472 122 640 185 52 19 129 48 170 63 83 31 332 133 395 161 22
10 87 39 145 65 258 116 651 323 950 503 211 127 444 274 448 284 2 5 10 8 18
8 8 0 14 5 14 10 0 6 7 10 15 10 8 0 15 5 15 10 0 6 4 10 10 10 9 0 122 78
295 202 125 90 213 165 308 261 53 55 97 103 97 107 0 4 9 18 21 31 54 62 195
381 230 521 12 52 31 73 54 64 25 -9 83 -109 141 -244 58 -131 61 -138 68
-131 9 9 35 159 43 244 14 159 7 518 -12 650 -2 17 -9 66 -15 110 -13 93 -16
113 -28 176 -5 27 -5 54 0 62 8 14 12 14 46 0 20 -8 60 -30 87 -48 110 -73
165 -93 165 -61 0 32 -92 193 -215 375 -125 186 -157 233 -267 387 -86 120
-69 120 142 -2 80 -45 162 -90 184 -99 51 -22 66 -8 43 39 -15 33 -156 212
-223 286 -18 19 -41 45 -51 56 -16 19 -153 167 -267 288 -46 50 -380 396 -506
525 -50 51 -113 126 -139 165 -165 244 -333 597 -457 960 -41 121 -118 387
-128 447 -8 49 -127 451 -178 604 -123 370 -271 690 -393 849 -19 25 -35 52
-35 59 0 11 123 172 160 209 8 8 37 41 65 73 27 32 64 74 83 94 53 57 73 108
61 159 -13 60 -46 108 -120 176 -209 194 -619 358 -777 312 -42 -12 -58 -42
-67 -131 -4 -38 -9 -85 -11 -104 -2 -19 -5 -48 -8 -65 -3 -17 -8 -53 -11 -81
-24 -186 -59 -329 -87 -346 -11 -7 -112 17 -258 61 -87 26 -270 73 -330 85
-33 7 -139 25 -165 28 -45 6 -40 -6 -101 227 -49 189 -82 295 -112 365 -50
116 -49 117 -191 -187 -17 -37 -40 -72 -50 -77 -50 -27 -126 121 -165 319 -3
14 -7 34 -9 45 -5 22 -14 77 -22 140 -3 23 -7 52 -10 65 -3 13 -7 42 -10 63
-7 42 -22 87 -29 87 -3 0 -8 -6 -13 -12z"/>
<path d="M3250 8681 c0 -6 4 -13 10 -16 6 -3 7 1 4 9 -7 18 -14 21 -14 7z"/>
</g>
</svg>
