<svg version="1" xmlns="http://www.w3.org/2000/svg" width="2441.333" height="2441.333" viewBox="0 0 1831.000000 1831.000000"><path d="M970.3 16.2c-.4.7-7.1 14.1-14.9 29.8-7.8 15.7-16.7 32.9-19.8 38.4-3.1 5.4-5.6 10-5.6 10.2 0 .5-13.1 20.5-17.6 26.9-7.4 10.5-23.5 24.1-27.2 22.8-1.7-.6-4-6.4-4.8-12.1-1.5-10 .2-28.6 3.1-35.5 1-2.4-1.9-2.2-6.4.5-3 1.8-20.1 15.6-27.7 22.4-3.2 2.9-19.2 17.5-22.9 20.9-4.1 3.9-27.7 26-32.2 30.3-8.5 8-25.1 17.4-54.8 31.2-8.2 3.9-10.5 4.5-19 5.5-2.7.3-5.7.8-6.5 1-.8.2-3.7.6-6.5 1-2.7.3-5.7.8-6.5 1-.8.2-3.3.6-5.5 1-2.2.3-4.7.7-5.5 1-.8.2-2.6.6-4 .9-8.9 1.5-30.1 7.9-52 15.6-9.6 3.4-19.3 6.6-21.5 7.2-2.2.6-4.2 1.4-4.5 1.7-.6.7-3.5 1.4-6.5 1.5-1.5.1-2.2-1.1-3.6-6.2-1.5-5.9-1.8-6.8-2-7.5 0-.1-.2-.9-.4-1.7-.1-.8-1.4-7.1-2.8-14s-2.8-13.6-3-15c-1.6-8.6-4.2-20-6.8-29.9-7.9-30-15-43.1-26.4-48.6-5-2.5-6.2-2.7-14.7-2.2-17.7.9-43.4 9.5-71.3 23.8-33.8 17.4-59.1 36.9-75.3 58.4-3.1 4-7.4 13.2-8.8 18.5-1.9 7.4-1.4 12.3 2.1 19.8 6.2 13.4 15.9 25.2 51.5 62.3 21.9 22.9 28 30.9 28 37 0 1.6-2.5 6.5-6.2 12-6.1 9.4-18.8 29.8-18.8 30.3 0 .2-2.4 4.6-5.3 9.7-19 33.6-42.2 81-60.4 123.4-3.5 8.2-6.8 15.9-7.3 17-2.2 5.1-11.2 28.2-15.5 40-2.6 7.1-5.3 14.3-6 16-.7 1.6-1.6 4.1-2 5.5-1.1 3.6-11.8 30.4-15 37.5-25.6 56.6-57.1 107.5-97.5 157.9-.8 1-1.9 2.3-2.5 3-.5.6-3.5 4-6.5 7.6-3 3.6-5.9 7-6.5 7.6-.5.6-4.4 4.9-8.5 9.5-7.6 8.4-25.1 26.1-35.1 35.5-4.7 4.4-10.9 11.1-21.6 23.1-7.3 8.3-24.1 29.3-31.6 39.5-22.9 31.4-38.9 59.1-55.2 95.3-1 2.2-3 6.6-4.6 9.8-1.6 3.2-3 6.5-3.1 7.5-.2.9-.5 1.9-.8 2.2-.6.6-2.9 5.4-5.5 11.5-1 2.2-3.1 6.9-4.7 10.4-1.7 3.5-3.1 6.8-3.3 7.5-.2 1.1-1.9 5.2-5.6 13.2-5.5 12.2-9.7 22.4-9.2 22.4.3 0 .1.6-.5 1.3-1.1 1.3-12 28.7-16.9 42.7-11.7 33-7.9 34.1 14.4 4.1 6.4-8.6 13.4-18.1 15.6-21.1 6.2-8.3 10.9-13.2 11.7-12 .6 1-.4 6.2-10.5 57-2.4 12.4-4.7 24.1-5 26-.3 1.9-1 5.1-1.5 7-.5 1.9-1.1 5.3-1.5 7.4-.3 2.1-.7 4.8-1 6-.5 2-1.2 5.7-2 10.1-.1 1.1-1 5.6-1.9 10-.8 4.4-1.7 9.1-2 10.5-.2 1.4-.7 3.6-1 5-.3 1.4-.8 3.6-1 5-.3 1.4-.9 5-1.5 8s-1.3 6.8-1.6 8.5c-.8 4.7-1.5 8.2-4 21-2.4 12.6-6.1 31.9-7 37-.2 1.6-.7 4.1-1 5.5-.3 1.4-.7 3.8-1 5.5-.2 1.6-2.2 12.9-4.4 25-6 33.5-7.1 41.7-5.3 40 .6-.6 2.9-5.7 5.2-11.5 11.6-29.6 22.7-48.7 34.8-60.2 8.4-7.9 14.3-10.9 22.6-11.5 10.8-.9 20.1 3.3 31.1 14.1 9.2 8.9 12.2 13.2 44.6 63.1 17.6 27.1 37.9 49.6 69.4 77 3.8 3.3 8.7 7.6 10.9 9.6 4.1 3.5 13.5 11.3 21.6 17.8 8.5 6.9 37.8 28.9 50 37.7 6.9 4.9 12.7 9.2 12.8 9.6.2.5.8.8 1.3.8.4 0 3.6 1.9 6.9 4.2 3.4 2.4 6.9 4.7 7.8 5.3.9.5 1.9 1.3 2.2 1.6 1.3 1.6 46.8 30.9 71 45.7 19.1 11.7 58.9 35.2 59.6 35.2.3 0 1.8.8 3.2 1.9 2.9 2 30.7 17.5 51.7 28.8 46.6 25.2 99.9 51.6 147 72.8 9.4 4.2 27.1 12 39.5 17.2 12.4 5.2 23.9 10 25.5 10.8 6.2 2.7 34.2 13.8 39 15.5 2.8 1 11 3.9 18.3 6.4 7.3 2.6 14 4.9 15 5.1.9.3 4.4 1.4 7.7 2.5 10 3.5 20.1 6 34 8.5 4.4.7 9.6 1.7 11.5 2 1.9.4 4.9.8 6.5.9 1.7.2 4.8.6 7 .9 2.2.4 6 .9 8.5 1.1 2.5.3 6.5.8 9 1.1 22.9 2.6 90 2.6 104 0 .8-.1 5-.6 9.3-1 4.3-.3 8.8-.8 10-1 1.2-.2 4.5-.6 7.2-1 2.8-.3 7.3-1 10-1.5 2.8-.5 6.6-1.2 8.5-1.4 4.7-.7 9.9-1.7 16-3 1.4-.3 3.9-.8 5.5-1.2 4.5-.9 47.6-12.4 50.5-13.4 1.4-.5 6.6-2.1 11.5-3.6 11.4-3.4 38.1-12.2 42-13.8 1.7-.7 7.7-3 13.5-5.1 11.9-4.3 30.5-11.2 33.5-12.6 1.1-.4 9.4-3.8 18.5-7.5 9.1-3.6 18.3-7.4 20.5-8.4 2.2-1 8.3-3.6 13.6-5.8 34.3-14.6 91.2-42 124.9-60.2 7.4-4 16.9-9.1 21-11.3 31.8-17 85.7-49.2 121.3-72.3 5.3-3.5 10.1-6.4 10.6-6.4s1.2-.7 1.5-1.6c.3-.8 1-1.2 1.6-.9.5.3 1 .1 1-.4 0-.6.6-1.1 1.4-1.1.8 0 1.7-.7 2-1.6.3-.8 1-1.2 1.6-.9.5.3 1 .2 1-.2 0-.5.8-1.3 1.9-1.8 1-.6 3.8-2.3 6.2-4 2.4-1.6 4.7-2.9 5-3 .3 0 1.3-.8 2.2-1.7 1-.9 2.6-2 3.7-2.3 1.1-.3 1.9-1.1 1.7-1.7-.1-.6.6-1.2 1.6-1.3 1-.2 2.5-1.2 3.4-2.2.8-1 1.2-1.2.8-.6-.4.9-.1 1.1.9.7.9-.3 1.4-1 1.1-1.4-.3-.5.8-1.4 2.5-2.2 1.6-.7 3-1.6 3-2 0-.5.6-.8 1.4-.8.8 0 2.3-1.1 3.4-2.5 1.1-1.3 2.2-2.1 2.6-1.7.4.3 1 .2 1.4-.4.7-.9 4.7-3.9 17.9-13 22.8-15.9 45.1-33.7 58.4-46.5 7.7-7.5 11-11 22.7-24.2 1.8-2 3-3.7 2.6-3.7-.3 0 .4-.9 1.7-2 1.3-1 2.1-1.9 1.7-2-.7 0 1.1-2.5 4-5.5.6-.8 1.2-1.8 1.2-2.4 0-.5.6-1.6 1.3-2.3.6-.7 2.4-3.6 3.8-6.3 1.4-2.8 4.8-9.3 7.5-14.5 9-17 17.6-39 24.3-62 3.8-12.8 5.9-17.7 7.9-18.5 3.9-1.5 11.7 8.1 19.7 24.1 3 6.1 5.5 11.4 5.5 11.7 0 .4 1.1 3 2.4 5.9 1.3 2.9 4.1 9.3 6.2 14.3 4.5 10.8 6.6 14.7 7.8 14.9 1.9.2 5.7-18 8.1-38.9 3.4-28.5 3.4-73.6 0-110-1.4-15.3-3.7-35.2-5.1-43.5-.3-1.9-.8-4.9-1-6.5-.2-1.7-.6-4.1-.9-5.5-.3-1.4-.8-4.2-1.1-6.4-.3-2.1-.8-4.8-1-6-.3-1.1-.8-4.7-1.1-7.8-.5-4.9-.3-5.9 1.1-6.4 3.7-1.4 8.4.9 37 18.5 9.1 5.7 13.9 7.4 16.1 5.7 1.5-1 1.5-1.8.5-5.7-2.3-8.6-12.9-27.8-29.9-53.4-3.6-5.5-7-10.8-7.6-11.7-.5-.9-3.4-5.2-6.4-9.5-3-4.3-8.8-12.8-12.9-18.8-4.2-6.1-7.8-11.2-8.1-11.5-.3-.3-2.4-3.2-4.6-6.5-2.2-3.3-4.4-6.5-4.8-7-.5-.6-5.8-7.9-11.8-16.4-13.7-19.3-14-22.4-1.9-16.9 4.4 2 8.2 4.2 36 20.5 17.6 10.3 26.7 14.6 31 14.7 3 .1 3.5-.2 3.8-2.4.2-2.1-5.3-12.9-9-17.5-.4-.5-4.9-6.2-9.9-12.5s-11.6-14.4-14.7-18c-13.1-14.9-23.7-26.8-28.5-32-2.9-3.1-7.7-8.3-10.7-11.6-14.1-15.3-32.6-34.9-56-59.4-24.5-25.6-27.8-29.1-57.3-59.2-17.7-18.3-28.9-30.6-32.6-36-8.3-12.2-20.9-33-30.3-50.3-4.6-8.4-24.8-49-24.8-49.8 0-.3-1.3-3.4-2.9-6.9-13.9-30.4-28.5-70.3-39.6-107.7-4.2-14.2-8.1-28.8-9.1-33.5-.2-1-.8-3.3-1.3-5-.5-1.7-1.9-7.6-3.1-13.1-1.2-5.5-2.9-12-3.7-14.4-.8-2.4-3.4-11.7-5.9-20.5-31.3-111.1-61.5-184.4-95.2-231l-7.2-9.8 4.2-6.1c2.3-3.4 4.7-6.7 5.2-7.4.6-.6 2.2-2.6 3.6-4.4 2.5-3.3 19.9-24 21-24.9.3-.3 5-5.7 10.4-12 5.5-6.3 10.4-12 11-12.5 4.5-4.2 11.5-13.8 13-17.8 8.6-23-20.9-55.1-75.4-82.3-21.4-10.6-41.3-17.8-61-21.8-10.6-2.2-26.2-1.7-31.5.9-6 3-7.4 6.1-9 19.5-.4 3-.8 6.6-1 8-.2 1.4-.6 5.4-1 9-.5 6.3-.8 8.9-2 17.6-.3 2.3-.8 5.9-1 8-.3 2.2-.7 5-1 6.4-.2 1.4-.7 4.9-1 7.9-.4 3-.9 6.3-1.1 7.5-.7 3.3-1.2 6.7-1.9 11.6-.4 2.4-.8 4.7-1 5-.2.3-.6 2.5-1 4.9-1.7 11.6-7.7 27.2-10.9 28.4-1 .4-14.9-2.8-33.6-7.8-.8-.2-7.6-2.2-15-4.5-18.8-5.7-44.5-12.4-55-14.4-1.4-.2-4.6-.9-7.1-1.5s-6.5-1.3-8.8-1.6c-2.4-.3-4.6-.7-5-.9-.3-.2-3.1-.7-6.1-1.1-3-.4-6.4-.9-7.5-1-1.1-.2-2.7-.4-3.5-.4-.8-.1-2.1-.5-2.8-1-1.1-.7-5.8-15.1-7.7-23.6-1.3-6.2-8.7-34.4-9.6-36.5-.5-1.4-1.1-3.6-1.4-4.9-1-5.5-9.7-33.2-12.1-38.9-.8-1.7-2.1-4.9-3-7-2.4-5.5-6.2-10.2-8.3-10.2-3 0-9.3 10.6-17.6 29.5-10.6 24.4-16.3 34.5-19.5 34.5-.7 0-5.5-3.5-7.5-5.5-5.4-5.2-14.5-25.2-16.9-37-.3-1.1-1.3-5.8-2.4-10.5-1.1-4.7-2.8-13.2-3.7-18.9-.9-5.8-1.8-10.7-1.9-11-.2-.3-.7-3.5-1-7.1-.4-3.6-.9-7.4-1.1-8.5-.2-1.1-.7-3.8-1-6-.3-2.2-.8-5.6-1.1-7.5-.4-2.9-2-11-3-15.5-1.2-5.6-4.2-8.2-6.1-5.3z"/></svg>