<?xml version="1.0" standalone="no"?>
<!DOCTYPE svg PUBLIC "-//W3C//DTD SVG 20010904//EN"
 "http://www.w3.org/TR/2001/REC-SVG-20010904/DTD/svg10.dtd">
<svg version="1.0" xmlns="http://www.w3.org/2000/svg"
 width="625.000000pt" height="625.000000pt" viewBox="0 0 625.000000 625.000000"
 preserveAspectRatio="xMidYMid meet">
<metadata>
Created by potrace 1.14, written by Peter Selinger 2001-2017
</metadata>
<g transform="translate(0.000000,625.000000) scale(0.100000,-0.100000)"
fill="#000000" stroke="none">
<path d="M3325 5641 l-330 -169 -448 -519 c-246 -285 -488 -564 -537 -620 -49
-56 -201 -201 -337 -323 -136 -122 -252 -230 -257 -241 -16 -34 9 -49 85 -49
l68 0 -40 -72 c-94 -171 -152 -297 -325 -707 -101 -239 -184 -440 -184 -446 0
-7 7 -19 16 -26 14 -11 25 -10 75 7 52 19 59 19 55 5 -203 -722 -371 -1190
-577 -1606 -130 -264 -237 -421 -338 -496 -27 -20 -32 -29 -27 -47 7 -20 14
-22 72 -22 l65 0 -75 -148 c-42 -81 -76 -151 -76 -155 0 -5 17 -7 37 -5 l38 3
82 160 c94 182 99 208 41 213 l-37 3 60 81 c127 171 264 438 416 808 73 177
263 753 348 1053 63 220 67 240 52 255 -16 15 -21 15 -67 -2 -28 -10 -52 -17
-54 -15 -5 5 333 800 373 879 19 36 65 121 103 189 38 68 68 131 66 140 -2 11
-20 18 -57 24 -30 4 -56 8 -57 10 -1 1 92 85 206 187 226 202 215 189 849 924
l432 500 320 163 c177 90 325 163 330 161 20 -7 -59 -104 -216 -266 l-163
-167 -172 -345 c-95 -190 -176 -357 -180 -372 -11 -36 4 -47 125 -93 55 -21
424 -164 820 -317 396 -154 853 -329 1015 -389 452 -168 412 -147 479 -248 32
-47 60 -91 64 -98 4 -6 -44 4 -106 23 -266 80 -256 78 -272 64 -8 -7 -15 -23
-15 -36 0 -25 -14 -20 329 -123 74 -22 138 -44 142 -48 4 -4 60 -84 123 -178
138 -202 141 -215 77 -311 -22 -33 -55 -77 -74 -99 l-35 -40 -98 1 c-166 1
-365 50 -652 160 -155 60 -185 62 -180 16 3 -24 14 -32 93 -64 126 -53 381
-136 489 -160 50 -11 137 -23 194 -27 l102 -6 -26 -37 c-41 -57 -108 -82 -224
-82 -117 1 -222 21 -444 85 -94 27 -189 49 -211 49 -22 0 -386 -49 -809 -110
l-770 -109 -94 44 c-297 141 -496 358 -566 620 -24 86 -31 263 -16 381 43 348
217 602 512 750 74 37 89 48 86 66 -6 43 -30 44 -114 2 -141 -69 -300 -205
-381 -324 -78 -115 -140 -277 -168 -437 -17 -99 -20 -293 -4 -379 58 -329 294
-602 656 -759 64 -28 79 -39 85 -62 29 -111 100 -725 86 -739 -4 -3 -18 2 -31
11 -19 12 -31 14 -45 6 -16 -8 -21 -29 -30 -123 -25 -250 -34 -447 -31 -685
l4 -251 -48 1 c-29 1 -53 -5 -62 -14 -22 -21 -43 -118 -65 -289 -11 -85 -22
-172 -25 -193 l-5 -38 37 3 38 3 7 65 c13 113 39 292 49 342 9 41 14 48 34 48
13 0 38 -12 55 -27 25 -21 36 -24 49 -16 14 9 15 25 11 109 -14 271 2 824 26
947 5 25 7 26 27 12 28 -20 73 -19 81 0 15 39 -29 478 -74 744 -11 63 -18 116
-17 117 5 5 1483 214 1511 214 17 0 89 -18 162 -40 369 -113 585 -128 708 -50
31 20 80 76 164 187 66 87 127 173 136 190 21 41 21 125 0 166 -9 18 -113 174
-230 348 -190 281 -219 319 -256 337 -24 12 -196 79 -383 148 -542 201 -1475
566 -1475 577 0 6 55 116 122 246 l121 236 154 159 c84 87 171 185 193 218 65
97 50 158 -39 158 -36 0 -90 -27 -369 -181 -321 -178 -329 -183 -405 -263
l-77 -81 92 180 91 180 156 160 c151 156 216 235 227 282 14 55 -21 93 -84 93
-15 0 -174 -76 -357 -169z m725 -280 c0 -19 -89 -121 -231 -266 l-147 -150
-122 -245 c-67 -135 -124 -247 -126 -249 -4 -5 -225 78 -236 88 -4 3 57 97
136 209 l142 204 284 208 c157 115 288 209 293 210 4 0 7 -4 7 -9z"/>
<path d="M3614 3815 c-125 -27 -289 -112 -289 -149 0 -32 31 -43 62 -23 40 25
134 73 161 81 19 7 22 4 22 -22 0 -72 154 -126 254 -88 59 23 81 49 80 97 -1
21 0 39 1 39 1 0 21 -7 44 -15 52 -18 73 -11 69 24 -3 22 -12 29 -68 48 -77
26 -235 30 -336 8z"/>
<path d="M5296 3201 c-10 -16 5 -42 23 -39 21 4 21 42 -1 46 -9 2 -19 -1 -22
-7z"/>
<path d="M5103 3114 c-8 -22 18 -37 36 -20 7 8 10 19 7 25 -10 16 -36 13 -43
-5z"/>
<path d="M5262 2958 c2 -13 10 -23 18 -23 8 0 16 10 18 23 3 17 -2 22 -18 22
-16 0 -21 -5 -18 -22z"/>
</g>
</svg>
